<svg width="59" height="16" viewBox="0 0 59 16" fill="none" xmlns="http://www.w3.org/2000/svg">
    <path d="M11.0348 5.68C10.5682 5.68 10.1682 5.57333 9.83484 5.36C9.51484 5.13333 9.34151 4.84667 9.31484 4.5C9.24818 3.99333 8.99484 3.59333 8.55484 3.3C8.12818 2.99333 7.50151 2.84 6.67484 2.84C5.82151 2.84 5.15484 3.03333 4.67484 3.42C4.20818 3.80667 3.95484 4.38667 3.91484 5.16C3.88818 6.13333 3.86818 7.11333 3.85484 8.1C3.84151 9.07333 3.86151 10.04 3.91484 11C3.95484 11.7867 4.20818 12.36 4.67484 12.72C5.14151 13.08 5.80818 13.26 6.67484 13.26C7.50151 13.26 8.14818 13.08 8.61484 12.72C9.08151 12.36 9.31484 11.7867 9.31484 11V9.68H7.45484C7.17484 9.68 6.94151 9.64667 6.75484 9.58C6.56818 9.5 6.42151 9.40667 6.31484 9.3C6.20818 9.18 6.13484 9.04667 6.09484 8.9C6.05484 8.75333 6.03484 8.60667 6.03484 8.46C6.03484 8.32667 6.05484 8.19333 6.09484 8.06C6.13484 7.91333 6.20818 7.78 6.31484 7.66C6.42151 7.54 6.56818 7.44 6.75484 7.36C6.94151 7.28 7.17484 7.24 7.45484 7.24H11.3748C12.2948 7.24 12.7548 7.64 12.7548 8.44V11C12.7548 11.8667 12.5948 12.6 12.2748 13.2C11.9682 13.8 11.5348 14.2867 10.9748 14.66C10.4282 15.0467 9.78151 15.32 9.03484 15.48C8.30151 15.6533 7.51484 15.74 6.67484 15.74C5.79484 15.74 4.98151 15.6533 4.23484 15.48C3.50151 15.32 2.86151 15.0467 2.31484 14.66C1.78151 14.2867 1.36151 13.8 1.05484 13.2C0.748177 12.6 0.588177 11.8667 0.574844 11C0.548177 10.04 0.534844 9.06667 0.534844 8.08C0.534844 7.09333 0.548177 6.1 0.574844 5.1C0.588177 4.26 0.754844 3.54 1.07484 2.94C1.39484 2.34 1.82151 1.85333 2.35484 1.48C2.90151 1.09333 3.53484 0.813333 4.25484 0.639999C4.97484 0.453333 5.74151 0.359999 6.55484 0.359999C7.46151 0.359999 8.29484 0.459999 9.05484 0.659999C9.81484 0.859999 10.4682 1.13333 11.0148 1.48C11.5615 1.81333 11.9882 2.21333 12.2948 2.68C12.6015 3.13333 12.7548 3.62 12.7548 4.14C12.7548 5.16667 12.1815 5.68 11.0348 5.68ZM20.3595 13.26C20.7595 13.26 21.1329 13.2267 21.4795 13.16C21.8395 13.0933 22.1462 12.9867 22.3995 12.84C22.6529 12.6933 22.8529 12.5067 22.9995 12.28C23.1462 12.0533 23.2195 11.7867 23.2195 11.48C23.2195 11.1333 23.1329 10.8333 22.9595 10.58C22.7995 10.3267 22.5795 10.1067 22.2995 9.92C22.0195 9.72 21.6995 9.54667 21.3395 9.4C20.9795 9.25333 20.6062 9.11333 20.2195 8.98C19.6195 8.76667 18.9995 8.54 18.3595 8.3C17.7329 8.04667 17.1595 7.75333 16.6395 7.42C16.1329 7.07333 15.7129 6.66667 15.3795 6.2C15.0595 5.73333 14.8995 5.17333 14.8995 4.52C14.8995 3.72 15.0929 3.06 15.4795 2.54C15.8662 2.00667 16.3595 1.58667 16.9595 1.28C17.5595 0.959999 18.2329 0.733333 18.9795 0.6C19.7262 0.466666 20.4595 0.4 21.1795 0.4C21.5395 0.4 21.9395 0.42 22.3795 0.459999C22.8195 0.486666 23.2462 0.54 23.6595 0.619999C24.0862 0.699999 24.4795 0.799999 24.8395 0.919999C25.2129 1.04 25.4995 1.18667 25.6995 1.36C25.8595 1.49333 25.9662 1.65333 26.0195 1.84C26.0862 2.01333 26.1195 2.17333 26.1195 2.32C26.1062 2.64 26.0262 2.89333 25.8795 3.08C25.7329 3.25333 25.5529 3.37333 25.3395 3.44C25.1395 3.50667 24.9129 3.53333 24.6595 3.52C24.4195 3.50667 24.1995 3.46 23.9995 3.38C23.5062 3.22 23.0395 3.08667 22.5995 2.98C22.1595 2.87333 21.6862 2.82 21.1795 2.82C20.3662 2.82 19.6929 2.94 19.1595 3.18C18.6395 3.40667 18.3795 3.78667 18.3795 4.32C18.3795 4.62667 18.4662 4.89333 18.6395 5.12C18.8129 5.34667 19.0395 5.55333 19.3195 5.74C19.6129 5.91333 19.9462 6.07333 20.3195 6.22C20.7062 6.36667 21.1062 6.50667 21.5195 6.64L22.6195 7.02C23.1262 7.20667 23.6195 7.42 24.0995 7.66C24.5929 7.9 25.0262 8.18667 25.3995 8.52C25.7862 8.85333 26.0929 9.24 26.3195 9.68C26.5595 10.12 26.6795 10.6333 26.6795 11.22C26.6795 11.9933 26.5262 12.6667 26.2195 13.24C25.9129 13.8133 25.4795 14.2867 24.9195 14.66C24.3729 15.0333 23.7195 15.3067 22.9595 15.48C22.1995 15.6667 21.3662 15.76 20.4595 15.76C19.1262 15.76 17.9995 15.6 17.0795 15.28C16.1595 14.96 15.4862 14.5867 15.0595 14.16C14.9262 14.0533 14.8262 13.9267 14.7595 13.78C14.6929 13.6333 14.6529 13.4867 14.6395 13.34C14.6129 13.1 14.6395 12.8867 14.7195 12.7C14.7995 12.5133 14.9062 12.36 15.0395 12.24C15.1862 12.12 15.3462 12.0333 15.5195 11.98C15.6929 11.9133 15.8729 11.88 16.0595 11.88C16.2595 11.88 16.4595 11.9133 16.6595 11.98C16.8729 12.0467 17.0529 12.14 17.1995 12.26C17.4129 12.4067 17.6195 12.54 17.8195 12.66C18.0195 12.78 18.2395 12.8867 18.4795 12.98C18.7195 13.06 18.9929 13.1267 19.2995 13.18C19.6062 13.2333 19.9595 13.26 20.3595 13.26ZM40.6128 5.9C40.1595 6.55333 39.6928 7.26667 39.2128 8.04C38.7461 8.81333 38.2995 9.52 37.8728 10.16C37.6861 10.4133 37.4861 10.5867 37.2728 10.68C37.0595 10.76 36.8261 10.8 36.5728 10.8C36.3595 10.8 36.1328 10.7533 35.8928 10.66C35.6528 10.5667 35.4595 10.3933 35.3128 10.14L32.6128 5.8V14.1C32.6128 14.6467 32.4328 15.04 32.0728 15.28C31.7261 15.52 31.3328 15.64 30.8928 15.64C30.6661 15.64 30.4461 15.6067 30.2328 15.54C30.0328 15.4867 29.8528 15.3933 29.6928 15.26C29.5328 15.14 29.3995 14.98 29.2928 14.78C29.1995 14.5933 29.1528 14.3667 29.1528 14.1V1.98C29.1528 1.48667 29.3261 1.11333 29.6728 0.86C30.0328 0.606666 30.4395 0.479999 30.8928 0.479999C31.1728 0.479999 31.4261 0.499999 31.6528 0.539999C31.8795 0.566666 32.0861 0.633333 32.2728 0.739999C32.4595 0.833333 32.6395 0.966666 32.8128 1.14C32.9861 1.31333 33.1595 1.53333 33.3328 1.8L36.5728 6.88L39.9328 1.8C40.2661 1.30667 40.5995 0.966666 40.9328 0.78C41.2795 0.579999 41.7461 0.479999 42.3328 0.479999C42.8128 0.479999 43.2195 0.606666 43.5528 0.86C43.8861 1.11333 44.0528 1.48667 44.0528 1.98V14.1C44.0528 14.3667 43.9995 14.5933 43.8928 14.78C43.7995 14.98 43.6728 15.14 43.5128 15.26C43.3528 15.3933 43.1661 15.4867 42.9528 15.54C42.7528 15.6067 42.5461 15.64 42.3328 15.64C42.1195 15.64 41.9061 15.6067 41.6928 15.54C41.4928 15.4867 41.3128 15.3933 41.1528 15.26C40.9928 15.14 40.8595 14.98 40.7528 14.78C40.6595 14.5933 40.6128 14.3667 40.6128 14.1V5.9ZM56.562 5.68C56.1354 5.68 55.7754 5.57333 55.482 5.36C55.1887 5.13333 55.0287 4.84667 55.002 4.5C54.9487 3.99333 54.7287 3.59333 54.342 3.3C53.9554 2.99333 53.382 2.84 52.622 2.84C51.1287 2.84 50.3487 3.61333 50.282 5.16C50.242 6.18667 50.222 7.18 50.222 8.14C50.2354 9.08667 50.2554 10.04 50.282 11C50.3087 11.7867 50.5154 12.36 50.902 12.72C51.2887 13.08 51.862 13.26 52.622 13.26C53.4087 13.26 53.9754 13.1067 54.322 12.8C54.682 12.4933 54.8954 12.02 54.962 11.38C54.9887 11.0467 55.162 10.7667 55.482 10.54C55.802 10.3133 56.1554 10.2 56.542 10.2C57.582 10.2 58.102 10.7267 58.102 11.78C58.102 12.3267 57.9687 12.84 57.702 13.32C57.4487 13.8 57.082 14.22 56.602 14.58C56.122 14.94 55.542 15.22 54.862 15.42C54.1954 15.6333 53.4487 15.74 52.622 15.74C51.8354 15.74 51.102 15.6533 50.422 15.48C49.742 15.32 49.1487 15.0467 48.642 14.66C48.1354 14.2867 47.7287 13.8 47.422 13.2C47.1287 12.6 46.9687 11.8667 46.942 11C46.8887 8.96 46.8887 6.99333 46.942 5.1C46.9687 4.26 47.1354 3.54 47.442 2.94C47.7487 2.34 48.1554 1.85333 48.662 1.48C49.182 1.09333 49.7754 0.813333 50.442 0.639999C51.1087 0.453333 51.8087 0.359999 52.542 0.359999C53.3554 0.359999 54.102 0.459999 54.782 0.659999C55.4754 0.859999 56.0687 1.13333 56.562 1.48C57.0554 1.81333 57.4354 2.21333 57.702 2.68C57.982 3.13333 58.122 3.62 58.122 4.14C58.122 5.16667 57.602 5.68 56.562 5.68Z" fill="#263C65"/>
</svg>
